<svg xmlns="http://www.w3.org/2000/svg" width="512" height="512" fill="none" viewBox="0 0 512 512">
  <path fill="#ff2d77" d="M19 266.016c-2.784-18.893-2.61-37.364-1.084-55.918 1.453-17.654 5.23-34.766 11.128-51.381 8.56-24.111 20.548-46.356 36.84-66.247 5.242-6.4 10.596-12.635 16.537-18.375 4.343-4.196 9.107-4.27 12.953-.23 3.173 3.334 2.61 8.466-1.145 12.428-13.551 14.301-25.475 29.774-35.088 47.071-11.495 20.684-18.703 42.821-23 65.911-3.174 17.049-3.296 34.479-1.895 51.63 2.174 26.618 9.554 52.074 21.78 75.942 4.216 8.229 8.899 16.229 14.534 23.738 3.07-8.984 4.828-10.449 11.543-9.567 3.534.464 5.6 2.445 5.892 6.091.506 6.307-.508 12.531-1.521 18.683-.58 3.525.092 7.209-1.594 10.624-1.356 2.744-3.12 4.542-6.294 4.578-10.545.121-20.807-2.105-31.055-4.11-4.922-.963-6.542-4.663-5.486-10.366.807-4.363 3.83-5.752 7.946-5.534 1.786.095 3.581.016 6.054.016-3.19-5.194-6.153-9.819-8.919-14.559-12.043-20.643-20.483-42.72-25.86-65.971-1.063-4.597-1.526-9.332-2.267-14.454m455.002 11.947c2.216-7.636 3.015-15.135 3.856-22.542 1.064-9.356 1.553-18.808 1.153-28.266-1.034-24.466-5.743-48.101-14.873-70.919-6.08-15.194-13.95-29.298-23.487-43.252-1.668 4.941-3.787 8.725-9.726 8.101-4.567-.479-7.791-2.955-7.877-7.586a669 669 0 0 1-.001-24.988c.086-4.63 3.268-7.49 7.875-7.504a3233 3233 0 0 1 25.49.005c4.382.022 7.514 3.315 7.588 7.828.077 4.77-3.077 8.089-7.771 8.156-1.633.023-3.267.004-5.557.004 4.152 6.316 8.056 12.014 11.717 17.865 13.842 22.119 23.316 45.956 28.707 71.526 3.897 18.481 5.674 37.1 4.826 55.9-1.1 24.403-5.83 48.141-14.621 71.012-5.918 15.396-13.305 30.081-22.442 43.763-5.887 8.816-12.027 17.554-19.548 25.171-2.188 2.216-4.021 4.778-6.14 7.068-3.806 4.113-10.913 5.117-14.224 2.108-3.242-2.946-2.601-10.287 1.38-14.231 16.093-15.944 28.554-34.506 38.392-54.75a193 193 0 0 0 15.283-44.469"/>
  <path fill="#ff2d77" d="M231.35 58.219c15.418-1.979 30.979-1.847 46.546-.316 22.381 2.202 43.19 9.185 62.944 19.552 10.114 5.308 19.681 11.573 28.226 19.21 4.391 3.925 4.239 9.498.056 13.683-32.037 32.053-64.08 64.102-96.372 96.402-46.198 46.197-92.146 92.145-138.095 138.09-4.644 4.643-10.121 4.805-14.404-.181-9.94-11.572-17.783-24.575-24.08-38.404-5.858-12.861-10.157-26.33-12.642-40.28-1.146-6.431-2.316-12.958-2.409-19.456-.23-16.157-.728-32.314 2.768-48.348 4.367-20.03 11.358-38.883 21.877-56.512 9.376-15.715 21.199-29.371 34.72-41.481 15.038-13.47 32.193-23.71 50.999-31.234 12.895-5.159 26.197-8.971 39.866-10.725m-68.781 182.768c-20.65.029-41.301.019-61.951.011-1.413-.001-2.766.027-2.6 2.006.22 2.603-.724 5.343.937 8.239.446 10.477 3.145 20.034 6.095 29.513 5.185 16.659 12.883 32.055 23.492 46.266 13.657-13.68 27.057-27.121 40.489-40.53 1.122-1.119 1.363-2.034 1.089-3.763-2.023-12.776-4.547-25.515-4.128-38.556.076-2.364-1.185-3.189-3.423-3.186m20.208.013c.124 9.809.723 19.194 2.494 28.18L213.303 241zm11.536-75.447c-2.133-.494-1.977.076-2.405 1.531-3.722 12.654-6.215 25.533-8.039 38.602-.885 6.347-.444 12.699-1.189 19.314 8.574 0 17.214.017 25.852-.005 7.322-.018 15.472 1.912 21.732-.688 6.253-2.598 10.615-9.75 15.807-14.905.471-.467.919-.964 1.429-1.385 1.095-.904 1.537-1.981 1.53-3.451a3122 3122 0 0 1-.005-32.959c.009-1.884-.569-2.689-2.549-2.625-12.732.412-25.394-.645-38.504-1.982-4.877-.426-9.38-.456-13.659-1.447m-71.543-14.251c-2.027-.582-2.99.068-3.836 1.871-2.91 6.195-5.993 12.308-8.938 18.487-4.999 10.492-7.483 21.754-9.991 33.445-.807 5.608-1.909 10.721-2.072 15.996-.092 2.952.578 4.004 3.8 3.978 19.831-.158 39.665-.151 59.497-.012 3.487.025 4.754-1.408 4.766-4.575.014-3.666-.379-7.387.105-10.99 1.97-14.685 4.111-29.377 8.158-43.647.96-3.386-1.012-3.507-2.501-3.734-16.573-2.526-32.887-6.194-48.988-10.819m145.432 17.699c-1.827.003-3.208-.135-3.198 1.9.032 6.193.012 12.387.012 18.333L285.46 169zm-20.393-94.89c-1.784-.436-3.553-.242-4.924 1.46-3.905 4.85-7.938 9.596-11.877 14.417-9.007 11.025-16.116 23.308-22.822 35.766-3.925 7.291-7.428 14.926-9.741 22.912 5.689.808 11.027 1.566 16.833 2.328 10.075-.05 19.611 1.531 29.254 1.11 3.239-.141 4.589-.534 4.56-4.266-.183-23.323-.073-46.648-.141-69.972-.003-1.273.979-3.236-1.142-3.755m23.883 2.05c-1.524-1.892-3.449-2.8-5.649-2-2.106.765-.934 2.887-.987 4.363-.156 4.321-.056 8.651-.056 13.477 0 18.969.003 37.439-.003 55.908 0 2.133-.512 4.155 3.038 4.172 12.049.059 24.058-.376 35.976-2.144 4.076-.605 5.974-4.494 8.489-7.171 1.761-1.876-.764-3.878-1.522-5.745-6.396-15.76-15.567-29.945-25.369-43.712-4.262-5.985-9.299-11.414-13.917-17.149m-54.326 2.57c-18.219 4.283-33.724 12.207-49.014 21.535-6.081 4.515-11.742 8.945-17.231 13.632-6.81 5.817-12.661 12.419-18.253 19.357-2.026 2.514-.987 3.211 1.254 3.694 14.124 3.045 28.253 6.067 42.4 9 2.89.6 4.459-.414 5.635-3.649 5.461-15.019 12.754-29.211 21.102-42.817 4.21-6.86 9.04-13.34 14.107-20.752m78.81-.376c12.184 16.699 22.339 32.853 30.426 51.303a970 970 0 0 1 5.652-6.412c6.439-6.362 12.629-12.476 19-18.768-16.833-11.985-34.434-20.479-55.078-26.123m83.028 42.934c4.875-4.876 10.303-5.023 14.76.268 9.813 11.65 17.711 24.589 23.94 38.466 5.725 12.754 9.961 26.014 12.564 39.806 2.285 12.103 2.521 24.273 2.657 36.535.153 13.912-1.758 27.472-5.176 40.842-5.867 22.946-15.966 43.909-30.396 62.734-10.282 13.415-22.138 25.234-36.186 35.312-15.594 16.484-31.015 32.651-46.117 49.111-7.482 8.153-14.688 16.556-22.487 24.421-1.371 1.382-2.453 3.054-3.65 4.606-3.07 3.983-7.368 4.386-11.654 3.279-4.345-1.122-4.531-4.934-4.496-8.765.104-11.327-.105-22.658.118-33.982.073-3.717-.64-5.309-4.8-5.022-5.803.4-11.654.074-17.485.105-21.376.115-41.631-4.956-61.361-12.844-15.406-6.16-29.185-14.967-42.505-24.679-6.159-4.491-6.274-11.958-1.099-17.104 77.96-77.526 155.632-155.342 233.373-233.089M222.25 302.25l-59.29 59.26c10.192 8.036 21.422 13.513 32.926 18.546 13.519 5.914 27.584 9.508 42.262 11.085 12.565 1.35 25.118 1.856 37.59-.141 9.214-1.476 13.261 1.527 13.262 11.03v25.373c10.596-11.273 20.727-21.309 29.913-32.146 4.37-5.156 9.212-9.87 13.683-14.896 5.762-6.477 11.073-13.611 18.297-18.672 5.797-4.061 11.188-8.633 16.253-13.48 15.299-14.64 27.279-31.752 35.787-51.15 6.96-15.87 11.863-32.5 12.84-49.786.771-13.634.799-27.366-1.631-41.057-4.369-24.622-13.937-46.837-28.6-67.267z"/>
  <path fill="#ff2d77" d="M241 311.23c.598-9.839 7.173-14.516 18.867-14.28 6.597.133 13.671 8.264 13.289 14.581-.564 9.332-2.8 13.943-10.019 16.83-6.14 2.455-14.089.561-18.615-4.299-3.318-3.562-3.894-7.821-3.522-12.832m57.341-13.346c11.235-2.689 18.714.1 21.622 8.463 3.049 8.769 1.249 17.966-8.752 21.965-8.556 3.421-18.884-1.02-21.873-9.507-2.851-8.095.618-16.471 9.003-20.921m58.18-.882c7.655 2.272 12.026 6.951 12.497 12.61.904 10.854-2.536 16.231-9.582 18.409-9.554 2.952-17.812 1.051-21.921-9.091-3.403-8.4 1.263-18.802 9.689-21.451 2.74-.862 5.91-.358 9.317-.477"/>
</svg>
